<svg width="23" height="29" viewBox="0 0 23 29" fill="none" xmlns="http://www.w3.org/2000/svg">
<path d="M0.5 24.125V21.375H3.25V11.75C3.25 9.84792 3.82292 8.15781 4.96875 6.67969C6.11458 5.20156 7.60417 4.23333 9.4375 3.775V2.8125C9.4375 2.23958 9.63802 1.7526 10.0391 1.35156C10.4401 0.950521 10.9271 0.75 11.5 0.75C12.0729 0.75 12.5599 0.950521 12.9609 1.35156C13.362 1.7526 13.5625 2.23958 13.5625 2.8125V3.775C15.3958 4.23333 16.8854 5.20156 18.0312 6.67969C19.1771 8.15781 19.75 9.84792 19.75 11.75V21.375H22.5V24.125H0.5ZM11.5 28.25C10.7437 28.25 10.0964 27.9807 9.55781 27.4422C9.01927 26.9036 8.75 26.2563 8.75 25.5H14.25C14.25 26.2563 13.9807 26.9036 13.4422 27.4422C12.9036 27.9807 12.2563 28.25 11.5 28.25ZM6 21.375H17V11.75C17 10.2375 16.4615 8.94271 15.3844 7.86563C14.3073 6.78854 13.0125 6.25 11.5 6.25C9.9875 6.25 8.69271 6.78854 7.61563 7.86563C6.53854 8.94271 6 10.2375 6 11.75V21.375Z" fill="#1C1B1F"/>
</svg>
