<svg width="26" height="31" viewBox="0 0 26 31" fill="none" xmlns="http://www.w3.org/2000/svg">
<path d="M5.16339 14.0417L12.2606 0.916664L19.3578 14.0417H5.16339ZM19.3578 30.0833C17.7448 30.0833 16.3738 29.4453 15.2447 28.1693C14.1156 26.8932 13.551 25.3437 13.551 23.5208C13.551 21.6979 14.1156 20.1484 15.2447 18.8724C16.3738 17.5964 17.7448 16.9583 19.3578 16.9583C20.9708 16.9583 22.3419 17.5964 23.471 18.8724C24.6001 20.1484 25.1646 21.6979 25.1646 23.5208C25.1646 25.3437 24.6001 26.8932 23.471 28.1693C22.3419 29.4453 20.9708 30.0833 19.3578 30.0833ZM0.646973 29.3542V17.6875H10.9702V29.3542H0.646973ZM19.3578 27.1667C20.2611 27.1667 21.0246 26.8142 21.6483 26.1094C22.272 25.4045 22.5838 24.5417 22.5838 23.5208C22.5838 22.5 22.272 21.6371 21.6483 20.9323C21.0246 20.2274 20.2611 19.875 19.3578 19.875C18.4545 19.875 17.6911 20.2274 17.0674 20.9323C16.4437 21.6371 16.1318 22.5 16.1318 23.5208C16.1318 24.5417 16.4437 25.4045 17.0674 26.1094C17.6911 26.8142 18.4545 27.1667 19.3578 27.1667ZM3.22778 26.4375H8.3894V20.6042H3.22778V26.4375ZM9.74432 11.125H14.7769L12.2606 6.53125L9.74432 11.125Z" fill="#1C1B1F"/>
</svg>
