<svg width="23" height="31" viewBox="0 0 23 31" fill="none" xmlns="http://www.w3.org/2000/svg">
<path d="M1.74408 30.0833C1.37847 30.0833 1.06125 29.9314 0.792411 29.6276C0.523577 29.3238 0.38916 28.9653 0.38916 28.5521V24.724C0.38916 22.5365 0.991349 20.6042 2.19573 18.9271C3.4001 17.25 4.94859 16.1806 6.84118 15.7188C5.98091 16.3993 5.3142 17.2561 4.84105 18.2891C4.36791 19.3221 4.13133 20.434 4.13133 21.625V28.5521C4.13133 28.8194 4.16359 29.0868 4.22811 29.3542C4.29263 29.6215 4.40017 29.8646 4.55071 30.0833H1.74408ZM6.48632 30.0833C6.1207 30.0833 5.80348 29.9314 5.53465 29.6276C5.26581 29.3238 5.13139 28.9653 5.13139 28.5521V21.625C5.13139 19.9236 5.66369 18.4774 6.72827 17.2865C7.79285 16.0955 9.07788 15.5 10.5834 15.5H16.6805C18.186 15.5 19.4656 16.0955 20.5195 17.2865C21.5733 18.4774 22.1002 19.9236 22.1002 21.625V23.9583C22.1002 25.6597 21.5733 27.1059 20.5195 28.2969C19.4656 29.4879 18.186 30.0833 16.6805 30.0833H6.48632ZM11.2608 12.4375C9.84137 12.4375 8.63699 11.8785 7.64768 10.7604C6.65837 9.64237 6.16372 8.28125 6.16372 6.67709C6.16372 5.07292 6.65837 3.71181 7.64768 2.59376C8.63699 1.4757 9.84137 0.916672 11.2608 0.916672C12.6803 0.916672 13.8846 1.4757 14.8739 2.59376C15.8633 3.71181 16.3579 5.07292 16.3579 6.67709C16.3579 8.28125 15.8633 9.64237 14.8739 10.7604C13.8846 11.8785 12.6803 12.4375 11.2608 12.4375Z" fill="#1C1B1F"/>
</svg>
