<svg width="26" height="31" viewBox="0 0 26 31" fill="none" xmlns="http://www.w3.org/2000/svg">
<path d="M12.2605 30.0833C10.4754 30.0833 8.7979 29.7005 7.22791 28.9349C5.65792 28.1693 4.29224 27.1302 3.13088 25.8177C1.96951 24.5052 1.0501 22.9618 0.372639 21.1875C-0.304824 19.4132 -0.643555 17.5174 -0.643555 15.5C-0.643555 13.4826 -0.304824 11.5868 0.372639 9.8125C1.0501 8.0382 1.96951 6.4948 3.13088 5.1823C4.29224 3.8698 5.65792 2.83073 7.22791 2.06511C8.7979 1.29948 10.4754 0.916672 12.2605 0.916672C14.0455 0.916672 15.7231 1.29948 17.2931 2.06511C18.8631 2.83073 20.2287 3.8698 21.3901 5.1823C22.5515 6.4948 23.4709 8.0382 24.1483 9.8125C24.8258 11.5868 25.1645 13.4826 25.1645 15.5C25.1645 17.5174 24.8258 19.4132 24.1483 21.1875C23.4709 22.9618 22.5515 24.5052 21.3901 25.8177C20.2287 27.1302 18.8631 28.1693 17.2931 28.9349C15.7231 29.7005 14.0455 30.0833 12.2605 30.0833ZM12.2605 27.1667C15.1424 27.1667 17.5834 26.0365 19.5835 23.776C21.5837 21.5156 22.5837 18.7569 22.5837 15.5C22.5837 12.2431 21.5837 9.48438 19.5835 7.22396C17.5834 4.96355 15.1424 3.83334 12.2605 3.83334C9.37858 3.83334 6.93757 4.96355 4.93744 7.22396C2.93732 9.48438 1.93725 12.2431 1.93725 15.5C1.93725 18.7569 2.93732 21.5156 4.93744 23.776C6.93757 26.0365 9.37858 27.1667 12.2605 27.1667ZM7.09887 21.3333V16.849L14.2284 8.82813C14.4219 8.60938 14.637 8.45139 14.8736 8.35417C15.1101 8.25695 15.3467 8.20834 15.5833 8.20834C15.8414 8.20834 16.0887 8.26303 16.3253 8.3724C16.5618 8.48178 16.7769 8.64584 16.9705 8.86459L18.1641 10.2135C18.3361 10.4323 18.4706 10.6754 18.5673 10.9427C18.6641 11.2101 18.7125 11.4774 18.7125 11.7448C18.7125 12.0122 18.6695 12.2856 18.5835 12.5651C18.4974 12.8446 18.3576 13.0938 18.1641 13.3125L11.0669 21.3333H7.09887ZM9.03448 19.1458H10.2604L14.1638 14.6979L13.5832 14.0052L12.9702 13.349L9.03448 17.7604V19.1458ZM13.5832 14.0052L12.9702 13.349L14.1638 14.6979L13.5832 14.0052Z" fill="#1C1B1F"/>
</svg>
