<svg width="26" height="31" viewBox="0 0 26 31" fill="none" xmlns="http://www.w3.org/2000/svg">
<path d="M3.22766 30.0833C2.51794 30.0833 1.91037 29.7977 1.40496 29.2266C0.899553 28.6554 0.646849 27.9687 0.646849 27.1667V10.724C0.259728 10.4566 -0.0521195 10.1102 -0.288694 9.6849C-0.525268 9.25955 -0.643555 8.76736 -0.643555 8.20833V3.83333C-0.643555 3.03125 -0.390851 2.34462 0.114558 1.77344C0.619966 1.20226 1.22753 0.916667 1.93725 0.916667H22.5837C23.2934 0.916667 23.901 1.20226 24.4064 1.77344C24.9118 2.34462 25.1645 3.03125 25.1645 3.83333V8.20833C25.1645 8.76736 25.0462 9.25955 24.8097 9.6849C24.5731 10.1102 24.2612 10.4566 23.8741 10.724V27.1667C23.8741 27.9687 23.6214 28.6554 23.116 29.2266C22.6106 29.7977 22.003 30.0833 21.2933 30.0833H3.22766ZM3.22766 11.125V27.1667H21.2933V11.125H3.22766ZM1.93725 8.20833H22.5837V3.83333H1.93725V8.20833ZM8.38927 18.4167H16.1317V15.5H8.38927V18.4167Z" fill="#1C1B1F"/>
</svg>
