<svg width="22" height="25" viewBox="0 0 22 25" fill="none" xmlns="http://www.w3.org/2000/svg">
<path d="M11.2605 12.5C9.84104 12.5 8.62591 11.9288 7.6151 10.7865C6.60428 9.64411 6.09887 8.27084 6.09887 6.66668C6.09887 5.06251 6.60428 3.68925 7.6151 2.54689C8.62591 1.40452 9.84104 0.833344 11.2605 0.833344C12.6799 0.833344 13.8951 1.40452 14.9059 2.54689C15.9167 3.68925 16.4221 5.06251 16.4221 6.66668C16.4221 8.27084 15.9167 9.64411 14.9059 10.7865C13.8951 11.9288 12.6799 12.5 11.2605 12.5ZM0.937256 24.1667V20.0833C0.937256 19.257 1.12544 18.4974 1.50181 17.8047C1.87818 17.112 2.37821 16.5833 3.0019 16.2188C4.33532 15.4653 5.69024 14.9002 7.06668 14.5234C8.44311 14.1467 9.84104 13.9583 11.2605 13.9583C12.6799 13.9583 14.0779 14.1467 15.4543 14.5234C16.8307 14.9002 18.1857 15.4653 19.5191 16.2188C20.1428 16.5833 20.6428 17.112 21.0192 17.8047C21.3955 18.4974 21.5837 19.257 21.5837 20.0833V24.1667H0.937256ZM3.51806 21.25H19.0029V20.0833C19.0029 19.816 18.9438 19.5729 18.8255 19.3542C18.7072 19.1354 18.5513 18.9653 18.3577 18.8438C17.1963 18.1875 16.0242 17.6953 14.8414 17.3672C13.6585 17.0391 12.4649 16.875 11.2605 16.875C10.0561 16.875 8.86249 17.0391 7.67962 17.3672C6.49675 17.6953 5.32463 18.1875 4.16327 18.8438C3.96971 18.9653 3.81378 19.1354 3.69549 19.3542C3.57721 19.5729 3.51806 19.816 3.51806 20.0833V21.25ZM11.2605 9.58334C11.9702 9.58334 12.5778 9.29775 13.0832 8.72657C13.5886 8.15539 13.8413 7.46876 13.8413 6.66668C13.8413 5.86459 13.5886 5.17796 13.0832 4.60678C12.5778 4.0356 11.9702 3.75001 11.2605 3.75001C10.5508 3.75001 9.9432 4.0356 9.43779 4.60678C8.93238 5.17796 8.67968 5.86459 8.67968 6.66668C8.67968 7.46876 8.93238 8.15539 9.43779 8.72657C9.9432 9.29775 10.5508 9.58334 11.2605 9.58334Z" fill="#1C1B1F"/>
</svg>
