<svg width="26" height="31" viewBox="0 0 26 31" fill="none" xmlns="http://www.w3.org/2000/svg">
<path d="M8.71219 30.0833L8.19602 25.4167C7.91644 25.2951 7.65298 25.1493 7.40565 24.9792C7.15832 24.809 6.91637 24.6267 6.6798 24.4323L2.84085 26.2552L-0.707764 19.3281L2.61503 16.4844C2.59352 16.3142 2.58277 16.1502 2.58277 15.9922V15.0078C2.58277 14.8498 2.59352 14.6858 2.61503 14.5156L-0.707764 11.6719L2.84085 4.74478L6.6798 6.5677C6.91637 6.37325 7.1637 6.19096 7.42178 6.02082C7.67986 5.85068 7.93794 5.70485 8.19602 5.58332L8.71219 0.916656H15.8094L16.3256 5.58332C16.6052 5.70485 16.8686 5.85068 17.1159 6.02082C17.3633 6.19096 17.6052 6.37325 17.8418 6.5677L21.6807 4.74478L25.2294 11.6719L21.9066 14.5156C21.9281 14.6858 21.9388 14.8498 21.9388 15.0078V15.9922C21.9388 16.1502 21.9173 16.3142 21.8743 16.4844L25.1971 19.3281L21.6485 26.2552L17.8418 24.4323C17.6052 24.6267 17.3579 24.809 17.0998 24.9792C16.8417 25.1493 16.5836 25.2951 16.3256 25.4167L15.8094 30.0833H8.71219ZM10.9704 27.1667H13.5189L13.9706 23.3021C14.6373 23.1076 15.2556 22.822 15.8255 22.4453C16.3955 22.0686 16.917 21.6128 17.3902 21.0781L20.5839 22.5729L21.842 20.0937L19.0677 17.7239C19.1752 17.3837 19.2505 17.0252 19.2935 16.6484C19.3365 16.2717 19.358 15.8889 19.358 15.5C19.358 15.1111 19.3365 14.7283 19.2935 14.3516C19.2505 13.9748 19.1752 13.6163 19.0677 13.276L21.842 10.9062L20.5839 8.42707L17.3902 9.95832C16.917 9.3993 16.3955 8.93141 15.8255 8.55468C15.2556 8.17794 14.6373 7.89235 13.9706 7.69791L13.5512 3.83332H11.0027L10.551 7.69791C9.8843 7.89235 9.26598 8.17794 8.69606 8.55468C8.12613 8.93141 7.60459 9.38714 7.13144 9.92186L3.93769 8.42707L2.67955 10.9062L5.45392 13.2396C5.34638 13.6042 5.27111 13.9687 5.22809 14.3333C5.18508 14.6979 5.16357 15.0868 5.16357 15.5C5.16357 15.8889 5.18508 16.2656 5.22809 16.6302C5.27111 16.9948 5.34638 17.3594 5.45392 17.7239L2.67955 20.0937L3.93769 22.5729L7.13144 21.0417C7.60459 21.6007 8.12613 22.0686 8.69606 22.4453C9.26598 22.822 9.8843 23.1076 10.551 23.3021L10.9704 27.1667ZM12.3253 20.6042C13.5727 20.6042 14.6373 20.1059 15.5191 19.1094C16.4008 18.1128 16.8417 16.9097 16.8417 15.5C16.8417 14.0903 16.4008 12.8871 15.5191 11.8906C14.6373 10.8941 13.5727 10.3958 12.3253 10.3958C11.0564 10.3958 9.98646 10.8941 9.11544 11.8906C8.24441 12.8871 7.8089 14.0903 7.8089 15.5C7.8089 16.9097 8.24441 18.1128 9.11544 19.1094C9.98646 20.1059 11.0564 20.6042 12.3253 20.6042Z" fill="#1C1B1F"/>
</svg>
