<svg width="16" height="30" viewBox="0 0 16 30" fill="none" xmlns="http://www.w3.org/2000/svg">
<path d="M6.37541 30V26.4167C4.90318 26.0833 3.63235 25.4444 2.56291 24.5C1.49346 23.5556 0.70874 22.2222 0.20874 20.5L3.29207 19.25C3.70874 20.5833 4.3268 21.5972 5.14624 22.2917C5.96568 22.9861 7.04207 23.3333 8.37541 23.3333C9.5143 23.3333 10.4796 23.0764 11.2712 22.5625C12.0629 22.0486 12.4587 21.25 12.4587 20.1667C12.4587 19.1944 12.1532 18.4236 11.5421 17.8542C10.931 17.2847 9.5143 16.6389 7.29207 15.9167C4.90318 15.1667 3.2643 14.2708 2.37541 13.2292C1.48652 12.1875 1.04207 10.9167 1.04207 9.41667C1.04207 7.61111 1.62541 6.20833 2.79207 5.20833C3.95874 4.20833 5.15318 3.63889 6.37541 3.5V0H9.70874V3.5C11.0976 3.72222 12.2435 4.22917 13.1462 5.02083C14.049 5.8125 14.7087 6.77778 15.1254 7.91667L12.0421 9.25C11.7087 8.36111 11.2365 7.69444 10.6254 7.25C10.0143 6.80556 9.18096 6.58333 8.12541 6.58333C6.90318 6.58333 5.97263 6.85417 5.33374 7.39583C4.69485 7.9375 4.37541 8.61111 4.37541 9.41667C4.37541 10.3333 4.79207 11.0556 5.62541 11.5833C6.45874 12.1111 7.90318 12.6667 9.95874 13.25C11.8754 13.8056 13.3268 14.6875 14.3129 15.8958C15.299 17.1042 15.7921 18.5 15.7921 20.0833C15.7921 22.0556 15.2087 23.5556 14.0421 24.5833C12.8754 25.6111 11.431 26.25 9.70874 26.5V30H6.37541Z" fill="#1C0561"/>
</svg>
