<svg width="29" height="30" viewBox="0 0 29 30" fill="none" xmlns="http://www.w3.org/2000/svg">
<path d="M18.6042 28.0573L12.4063 21.8594L14.4479 19.8177L18.6042 23.974L26.8438 15.7344L28.8854 17.7761L18.6042 28.0573ZM26.625 13.5834H23.7083V6.29171H20.7917V10.6667H6.20833V6.29171H3.29167V26.7084H12.0417V29.625H3.29167C2.48958 29.625 1.80295 29.3394 1.23177 28.7683C0.66059 28.1971 0.375 27.5105 0.375 26.7084V6.29171C0.375 5.48962 0.66059 4.80299 1.23177 4.23181C1.80295 3.66063 2.48958 3.37504 3.29167 3.37504H9.38021C9.64757 2.52435 10.1701 1.82556 10.9479 1.27869C11.7257 0.731812 12.5764 0.458374 13.5 0.458374C14.4722 0.458374 15.3411 0.731812 16.1068 1.27869C16.8724 1.82556 17.3889 2.52435 17.6563 3.37504H23.7083C24.5104 3.37504 25.1971 3.66063 25.7682 4.23181C26.3394 4.80299 26.625 5.48962 26.625 6.29171V13.5834ZM13.5 6.29171C13.9132 6.29171 14.2596 6.15195 14.5391 5.87244C14.8186 5.59292 14.9583 5.24657 14.9583 4.83337C14.9583 4.42018 14.8186 4.07383 14.5391 3.79431C14.2596 3.5148 13.9132 3.37504 13.5 3.37504C13.0868 3.37504 12.7405 3.5148 12.4609 3.79431C12.1814 4.07383 12.0417 4.42018 12.0417 4.83337C12.0417 5.24657 12.1814 5.59292 12.4609 5.87244C12.7405 6.15195 13.0868 6.29171 13.5 6.29171Z" fill="#1C1B1F"/>
</svg>
