<svg width="36" height="36" viewBox="0 0 36 36" fill="none" xmlns="http://www.w3.org/2000/svg">
<path d="M10.8847 35.9074C9.92132 35.9074 9.0966 35.5643 8.41055 34.8783C7.7245 34.1922 7.38147 33.3675 7.38147 32.4041C7.38147 31.4407 7.7245 30.616 8.41055 29.93C9.0966 29.2439 9.92132 28.9009 10.8847 28.9009C11.8481 28.9009 12.6728 29.2439 13.3589 29.93C14.0449 30.616 14.3879 31.4407 14.3879 32.4041C14.3879 33.3675 14.0449 34.1922 13.3589 34.8783C12.6728 35.5643 11.8481 35.9074 10.8847 35.9074ZM28.4009 35.9074C27.4375 35.9074 26.6128 35.5643 25.9267 34.8783C25.2407 34.1922 24.8977 33.3675 24.8977 32.4041C24.8977 31.4407 25.2407 30.616 25.9267 29.93C26.6128 29.2439 27.4375 28.9009 28.4009 28.9009C29.3643 28.9009 30.189 29.2439 30.8751 29.93C31.5611 30.616 31.9041 31.4407 31.9041 32.4041C31.9041 33.3675 31.5611 34.1922 30.8751 34.8783C30.189 35.5643 29.3643 35.9074 28.4009 35.9074ZM9.39583 7.88147L13.5997 16.6396H25.861L30.678 7.88147H9.39583ZM7.7318 4.37824H33.5682C34.2396 4.37824 34.7505 4.67747 35.1008 5.27594C35.4512 5.87441 35.4658 6.48018 35.1446 7.09325L28.9264 18.3036C28.6053 18.8875 28.1746 19.34 27.6346 19.6611C27.0945 19.9822 26.5033 20.1428 25.861 20.1428H12.8115L10.8847 23.646H31.9041V27.1493H10.8847C9.571 27.1493 8.57841 26.5727 7.90696 25.4196C7.23551 24.2664 7.20631 23.1206 7.81938 21.982L10.1841 17.6905L3.87824 4.37824H0.375V0.875H6.06776L7.7318 4.37824Z" fill="#EA0505"/>
</svg>
