<svg width="34" height="30" viewBox="0 0 34 30" fill="none" xmlns="http://www.w3.org/2000/svg">
<path d="M32.0425 13.4167V26.6667C32.0425 27.5833 31.7161 28.3681 31.0633 29.0208C30.4106 29.6736 29.6258 30 28.7092 30H5.37584C4.45917 30 3.67445 29.6736 3.02167 29.0208C2.36889 28.3681 2.04251 27.5833 2.04251 26.6667V13.4167C1.40362 12.8333 0.910561 12.0833 0.563339 11.1667C0.216117 10.25 0.209172 9.25 0.542505 8.16667L2.29251 2.5C2.51473 1.77778 2.91056 1.18056 3.48001 0.708333C4.04945 0.236111 4.70917 0 5.45917 0H28.6258C29.3758 0 30.0286 0.229167 30.5842 0.6875C31.1397 1.14583 31.5425 1.75 31.7925 2.5L33.5425 8.16667C33.8758 9.25 33.8689 10.2361 33.5217 11.125C33.1744 12.0139 32.6814 12.7778 32.0425 13.4167ZM20.7092 11.6667C21.4592 11.6667 22.0286 11.4097 22.4175 10.8958C22.8064 10.3819 22.9592 9.80556 22.8758 9.16667L21.9592 3.33333H18.7092V9.5C18.7092 10.0833 18.9036 10.5903 19.2925 11.0208C19.6814 11.4514 20.1536 11.6667 20.7092 11.6667ZM13.2092 11.6667C13.8481 11.6667 14.3689 11.4514 14.7717 11.0208C15.1745 10.5903 15.3758 10.0833 15.3758 9.5V3.33333H12.1258L11.2092 9.16667C11.0981 9.83333 11.2439 10.4167 11.6467 10.9167C12.0494 11.4167 12.5703 11.6667 13.2092 11.6667ZM5.79251 11.6667C6.29251 11.6667 6.73001 11.4861 7.10501 11.125C7.48001 10.7639 7.70917 10.3056 7.79251 9.75L8.70917 3.33333H5.45917L3.79251 8.91667C3.62584 9.47222 3.71612 10.0694 4.06334 10.7083C4.41056 11.3472 4.98695 11.6667 5.79251 11.6667ZM28.2925 11.6667C29.0981 11.6667 29.6814 11.3472 30.0425 10.7083C30.4036 10.0694 30.4869 9.47222 30.2925 8.91667L28.5425 3.33333H25.3758L26.2925 9.75C26.3758 10.3056 26.605 10.7639 26.98 11.125C27.355 11.4861 27.7925 11.6667 28.2925 11.6667ZM5.37584 26.6667H28.7092V14.9167C28.5703 14.9722 28.48 15 28.4383 15H28.2925C27.5425 15 26.8828 14.875 26.3133 14.625C25.7439 14.375 25.1814 13.9722 24.6258 13.4167C24.1258 13.9167 23.5564 14.3056 22.9175 14.5833C22.2786 14.8611 21.5981 15 20.8758 15C20.1258 15 19.4244 14.8611 18.7717 14.5833C18.1189 14.3056 17.5425 13.9167 17.0425 13.4167C16.5703 13.9167 16.0217 14.3056 15.3967 14.5833C14.7717 14.8611 14.0981 15 13.3758 15C12.5703 15 11.8411 14.8611 11.1883 14.5833C10.5356 14.3056 9.95917 13.9167 9.45917 13.4167C8.87584 14 8.29945 14.4097 7.73001 14.6458C7.16056 14.8819 6.51473 15 5.79251 15H5.60501C5.53556 15 5.45917 14.9722 5.37584 14.9167V26.6667Z" fill="#2FB261"/>
</svg>
